{"title":"We.are.what.we.are.2010.DVDRiP.XviD-UNVEiL","uid":6261113,"size":738116859,"categoryP":"video","categoryS":"movies","magnet":"?xt=urn:btih:ef2f06f68cbbe27e90cace25deb1f67a559f393a&amp;dn=We.are.what.we.are.2010.DVDRiP.XviD-UNVEiL&amp;tr=udp%3A%2F%2Ftracker.openbittorrent.com%3A80&amp;tr=udp%3A%2F%2Fopen.demonii.com%3A1337&amp;tr=udp%3A%2F%2Ftracker.coppersurfer.tk%3A6969&amp;tr=udp%3A%2F%2Fexodus.desync.com%3A6969","seeders":1,"leechers":1,"uploader":"sceneline","files":54,"time":1300759306,"description":"-\nhttp:// www. Speed. Cd       \nhttp:// www. Speed. Cd       the fast  and The Hottest Private Tracker on the net\n\nPlease Seed back to make the speed Faster!!!\n\nand don't forget to visit      ...... www. Speed. Cd..........\n-We.are.what.we.are.2010.DVDRiP.XviD-UNVEiL\n\nrls 21/03/2011\nrtl 21/03/2011 (uk)\n\nSpanish, english subbed &lt;a href=&quot;\nhttp://www.imdb.com/title/tt1620604/&quot; rel=&quot;nofollow&quot; target=&quot;_NEW&quot;&gt;\nhttp://www.imdb.com/title/tt1620604/&lt;/a&gt;\n\nVideo\nID                               : 0\nFormat                           : MPEG-4 Visual\nFormat profile                   : Advanced Simple@L5\nFormat settings, BVOP            : 2\nFormat settings, QPel            : No\nFormat settings, GMC             : No warppoints\nFormat settings, Matrix          : Default (H.263)\nCodec ID                         : XVID\nCodec ID/Hint                    : XviD\nDuration                         : 1h 25mn\nBit rate                         : 875 Kbps\nWidth                            : 640 pixels\nHeight                           : 256 pixels\nDisplay aspect ratio             : 2.500\nFrame rate                       : 25.000 fps\nColor space                      : YUV\nChroma subsampling               : 4:2:0\nBit depth                        : 8 bits\nScan type                        : Progressive\nCompression mode                 : Lossy\nBits/(Pixel*Frame)               : 0.214\nStream size                      : 535 MiB (77%)\nWriting library                  : XviD 1.2.1 (UTC 2008-12-04)\n\nAudio\nID                               : 1\nFormat                           : AC-3\nFormat/Info                      : Audio Coding 3\nMode extension                   : CM (complete main)\nCodec ID                         : 2000\nDuration                         : 1h 25mn\nBit rate mode                    : Constant\nBit rate                         : 256 Kbps\nChannel(s)                       : 2 channels\nChannel positions                : Front: L R\nSampling rate                    : 48.0 KHz\nBit depth                        : 16 bits\nCompression mode                 : Lossy\nStream size                      : 156 MiB (22%)\nAlignment                        : Split accross interleaves\nInterleave, duration             : 40 ms (1.00 video frame)\nInterleave, preload duration     : 500 ms","torrent":{"xt":"urn:btih:ef2f06f68cbbe27e90cace25deb1f67a559f393a","amp;dn":"We.are.what.we.are.2010.DVDRiP.XviD-UNVEiL","amp;tr":["udp%3A%2F%2Ftracker.openbittorrent.com%3A80","udp%3A%2F%2Fopen.demonii.com%3A1337","udp%3A%2F%2Ftracker.coppersurfer.tk%3A6969","udp%3A%2F%2Fexodus.desync.com%3A6969"],"infoHash":"ef2f06f68cbbe27e90cace25deb1f67a559f393a","infoHashBuffer":{"type":"Buffer","data":[239,47,6,246,140,187,226,126,144,202,206,37,222,177,246,122,85,159,57,58]},"announce":[],"urlList":[]}}